<svg width="149" height="192" viewBox="0 0 149 192" fill="none" xmlns="http://www.w3.org/2000/svg">
<path d="M23.98 18L23.98 169" stroke="black" stroke-opacity="0.33" stroke-width="12"/>
<path d="M149 41L0 41" stroke="black" stroke-opacity="0.33" stroke-width="12"/>
<path d="M149 146L0 146" stroke="black" stroke-opacity="0.33" stroke-width="12"/>
<path d="M126.32 18L126.32 169" stroke="black" stroke-opacity="0.33" stroke-width="12"/>
<path d="M17.9875 35.004H79.6668C88.6492 35.004 96.434 35.977 103.021 37.9232C109.608 39.8694 115.072 42.6889 119.414 46.3817C123.755 50.0246 126.974 54.4908 129.07 59.7805C131.216 65.0701 132.289 71.0334 132.289 77.6705C132.289 83.9083 131.241 89.672 129.145 94.9616C127.049 100.251 123.83 104.842 119.489 108.735C115.197 112.577 109.758 115.596 103.171 117.792C96.5837 119.938 88.7989 121.011 79.8165 121.011L41.716 120.936V152H17.9875V35.004ZM80.2656 100.426C84.7568 100.426 88.6741 99.902 92.0176 98.854C95.411 97.7562 98.2304 96.2341 100.476 94.2879C102.772 92.2918 104.468 89.8965 105.566 87.102C106.714 84.2576 107.288 81.1137 107.288 77.6705C107.288 70.734 105.017 65.3446 100.476 61.5021C95.9848 57.6097 89.248 55.6635 80.2656 55.6635H41.716V100.426H80.2656Z" fill="black"/>
</svg>