<svg width="532" height="131" viewBox="0 0 532 131" fill="none" xmlns="http://www.w3.org/2000/svg">
<path d="M1.55579 27L529.976 27" stroke="black" stroke-opacity="0.27" stroke-width="2.4" stroke-linecap="round"/>
<path d="M1.55579 108L529.976 108" stroke="black" stroke-opacity="0.27" stroke-width="2.4" stroke-linecap="round"/>
<path d="M511.556 9L511.556 129" stroke="black" stroke-opacity="0.27" stroke-width="2.4" stroke-linecap="round"/>
<path d="M22.5558 9L22.5559 129" stroke="black" stroke-opacity="0.27" stroke-width="2.4" stroke-linecap="round"/>
<path d="M47.7525 95H38.9927C38.7388 95 38.6118 94.873 38.6118 94.6191L38.7642 41.0322C38.7642 40.8291 38.8658 40.7275 39.0689 40.7275H54.0747C58.8482 40.7275 62.6187 42.1875 65.3863 45.1074C68.1792 48.002 69.5757 51.9502 69.5757 56.9521C69.5757 60.6084 68.8521 63.7949 67.4048 66.5117C65.9322 69.2031 64.0279 71.2852 61.6919 72.7578C59.356 74.2305 56.8169 74.9668 54.0747 74.9668H48.1333V94.6191C48.1333 94.873 48.0064 95 47.7525 95ZM54.0747 49.9824L48.1333 50.0586V65.5215H54.0747C55.7251 65.5215 57.1597 64.7344 58.3784 63.1602C59.5972 61.5605 60.2066 59.4912 60.2066 56.9521C60.2066 54.9209 59.6607 53.2578 58.5689 51.9629C57.4771 50.6426 55.979 49.9824 54.0747 49.9824ZM89.6409 95H80.805C80.6018 95 80.5003 94.873 80.5003 94.6191L80.6526 41.0322C80.6526 40.8291 80.7542 40.7275 80.9573 40.7275H96.7249C99.5433 40.7275 102.133 41.4131 104.494 42.7842C106.856 44.1553 108.735 45.9961 110.131 48.3066C111.553 50.6172 112.264 53.2324 112.264 56.1523C112.264 58.0566 111.972 59.7832 111.388 61.332C110.804 62.8809 110.118 64.1885 109.331 65.2549C108.57 66.3213 107.871 67.1084 107.237 67.6162C110.055 70.7393 111.464 74.4082 111.464 78.623L111.54 94.6191C111.54 94.873 111.413 95 111.159 95H102.324C102.12 95 102.019 94.9238 102.019 94.7715V78.623C102.019 76.7441 101.359 75.1191 100.038 73.748C98.7181 72.377 97.0931 71.6914 95.1634 71.6914H90.0218L89.9456 94.6191C89.9456 94.873 89.844 95 89.6409 95ZM96.7249 50.0586H90.0218V62.3223H96.7249C98.3245 62.3223 99.7464 61.7256 100.991 60.5322C102.26 59.3389 102.895 57.8789 102.895 56.1523C102.895 54.502 102.285 53.0801 101.067 51.8867C99.8479 50.668 98.4007 50.0586 96.7249 50.0586ZM138.804 95.7617C136.036 95.7617 133.484 95.0508 131.148 93.6289C128.838 92.207 126.972 90.3154 125.55 87.9541C124.153 85.5674 123.455 82.9521 123.455 80.1084L123.531 55.3906C123.531 52.4961 124.23 49.8936 125.626 47.583C126.997 45.2471 128.851 43.3809 131.187 41.9844C133.523 40.5625 136.062 39.8516 138.804 39.8516C141.648 39.8516 144.199 40.5498 146.459 41.9463C148.744 43.3428 150.572 45.2217 151.943 47.583C153.34 49.9189 154.038 52.5215 154.038 55.3906L154.114 80.1084C154.114 82.9521 153.429 85.5547 152.058 87.916C150.661 90.3027 148.808 92.207 146.497 93.6289C144.187 95.0508 141.622 95.7617 138.804 95.7617ZM138.804 86.3545C140.378 86.3545 141.749 85.7197 142.917 84.4502C144.085 83.1553 144.669 81.708 144.669 80.1084L144.593 55.3906C144.593 53.6641 144.047 52.2041 142.955 51.0107C141.863 49.8174 140.48 49.2207 138.804 49.2207C137.204 49.2207 135.833 49.8047 134.69 50.9727C133.548 52.1406 132.977 53.6133 132.977 55.3906V80.1084C132.977 81.8096 133.548 83.2822 134.69 84.5264C135.833 85.7451 137.204 86.3545 138.804 86.3545ZM182.901 95H174.103C173.875 95 173.761 94.873 173.761 94.6191V50.1348H163.63C163.376 50.1348 163.249 50.0078 163.249 49.7539L163.325 41.0322C163.325 40.8291 163.427 40.7275 163.63 40.7275H193.261C193.54 40.7275 193.68 40.8291 193.68 41.0322V49.7539C193.68 50.0078 193.578 50.1348 193.375 50.1348H183.13L183.206 94.6191C183.206 94.873 183.104 95 182.901 95ZM218.163 95.7617C215.395 95.7617 212.843 95.0508 210.507 93.6289C208.197 92.207 206.331 90.3154 204.909 87.9541C203.512 85.5674 202.814 82.9521 202.814 80.1084L202.89 55.3906C202.89 52.4961 203.588 49.8936 204.985 47.583C206.356 45.2471 208.21 43.3809 210.545 41.9844C212.881 40.5625 215.42 39.8516 218.163 39.8516C221.006 39.8516 223.558 40.5498 225.818 41.9463C228.103 43.3428 229.931 45.2217 231.302 47.583C232.699 49.9189 233.397 52.5215 233.397 55.3906L233.473 80.1084C233.473 82.9521 232.788 85.5547 231.417 87.916C230.02 90.3027 228.167 92.207 225.856 93.6289C223.545 95.0508 220.981 95.7617 218.163 95.7617ZM218.163 86.3545C219.737 86.3545 221.108 85.7197 222.276 84.4502C223.444 83.1553 224.028 81.708 224.028 80.1084L223.952 55.3906C223.952 53.6641 223.406 52.2041 222.314 51.0107C221.222 49.8174 219.838 49.2207 218.163 49.2207C216.563 49.2207 215.192 49.8047 214.049 50.9727C212.907 52.1406 212.336 53.6133 212.336 55.3906V80.1084C212.336 81.8096 212.907 83.2822 214.049 84.5264C215.192 85.7451 216.563 86.3545 218.163 86.3545ZM262.26 95H253.462C253.234 95 253.119 94.873 253.119 94.6191V50.1348H242.989C242.735 50.1348 242.608 50.0078 242.608 49.7539L242.684 41.0322C242.684 40.8291 242.785 40.7275 242.989 40.7275H272.619C272.899 40.7275 273.038 40.8291 273.038 41.0322V49.7539C273.038 50.0078 272.937 50.1348 272.734 50.1348H262.489L262.565 94.6191C262.565 94.873 262.463 95 262.26 95ZM299.35 95H290.4C290.222 95 290.133 94.8984 290.133 94.6953L290.209 72.5293L279.774 41.0322C279.723 40.8291 279.799 40.7275 280.002 40.7275H288.686C288.94 40.7275 289.092 40.8291 289.143 41.0322L294.894 62.0176L300.759 41.0322C300.81 40.8291 300.937 40.7275 301.14 40.7275H309.9C310.103 40.7275 310.179 40.8291 310.128 41.0322L299.578 72.2246L299.654 94.6953C299.654 94.8984 299.553 95 299.35 95ZM329.774 95H321.014C320.761 95 320.634 94.873 320.634 94.6191L320.786 41.0322C320.786 40.8291 320.888 40.7275 321.091 40.7275H336.097C340.87 40.7275 344.64 42.1875 347.408 45.1074C350.201 48.002 351.598 51.9502 351.598 56.9521C351.598 60.6084 350.874 63.7949 349.427 66.5117C347.954 69.2031 346.05 71.2852 343.714 72.7578C341.378 74.2305 338.839 74.9668 336.097 74.9668H330.155V94.6191C330.155 94.873 330.028 95 329.774 95ZM336.097 49.9824L330.155 50.0586V65.5215H336.097C337.747 65.5215 339.181 64.7344 340.4 63.1602C341.619 61.5605 342.228 59.4912 342.228 56.9521C342.228 54.9209 341.682 53.2578 340.591 51.9629C339.499 50.6426 338.001 49.9824 336.097 49.9824ZM388.649 95H363.436C363.233 95 363.131 94.873 363.131 94.6191L363.208 41.0322C363.208 40.8291 363.309 40.7275 363.512 40.7275H388.573C388.776 40.7275 388.878 40.8545 388.878 41.1084V49.8301C388.878 50.0332 388.776 50.1348 388.573 50.1348H372.577V62.3223H388.573C388.776 62.3223 388.878 62.4238 388.878 62.627L388.954 71.4629C388.954 71.666 388.852 71.7676 388.649 71.7676H372.577V85.4023H388.649C388.852 85.4023 388.954 85.5293 388.954 85.7832V94.6953C388.954 94.8984 388.852 95 388.649 95ZM441.881 95.7617C439.113 95.7617 436.562 95.0508 434.226 93.6289C431.915 92.207 430.062 90.3154 428.665 87.9541C427.294 85.5674 426.609 82.9521 426.609 80.1084V76.5283C426.609 76.249 426.735 76.1094 426.989 76.1094H435.749C435.952 76.1094 436.054 76.249 436.054 76.5283V80.1084C436.054 81.8096 436.625 83.2822 437.768 84.5264C438.91 85.7451 440.281 86.3545 441.881 86.3545C443.506 86.3545 444.89 85.7324 446.032 84.4883C447.175 83.2188 447.746 81.7588 447.746 80.1084C447.746 78.2041 446.502 76.541 444.014 75.1191C443.608 74.8652 443.074 74.5605 442.414 74.2051C441.779 73.8242 441.018 73.3926 440.129 72.9102C439.24 72.4277 438.377 71.958 437.539 71.501C436.701 71.0186 435.889 70.5615 435.102 70.1299C432.258 68.4541 430.138 66.3594 428.741 63.8457C427.37 61.3066 426.685 58.4629 426.685 55.3145C426.685 52.4199 427.396 49.8047 428.818 47.4688C430.239 45.1582 432.093 43.3301 434.378 41.9844C436.689 40.6133 439.19 39.9277 441.881 39.9277C444.649 39.9277 447.188 40.6133 449.498 41.9844C451.809 43.3809 453.65 45.2344 455.021 47.5449C456.417 49.8555 457.115 52.4453 457.115 55.3145V61.7129C457.115 61.916 457.014 62.0176 456.811 62.0176H448.051C447.848 62.0176 447.746 61.916 447.746 61.7129L447.67 55.3145C447.67 53.4863 447.099 52.001 445.956 50.8584C444.814 49.7158 443.455 49.1445 441.881 49.1445C440.281 49.1445 438.91 49.7539 437.768 50.9727C436.625 52.1914 436.054 53.6387 436.054 55.3145C436.054 57.0156 436.409 58.4375 437.12 59.5801C437.857 60.7227 439.19 61.8145 441.119 62.8555C441.322 62.957 441.792 63.2109 442.528 63.6172C443.265 64.0234 444.077 64.4805 444.966 64.9883C445.88 65.4707 446.705 65.915 447.442 66.3213C448.178 66.7021 448.622 66.9307 448.775 67.0068C451.364 68.4541 453.408 70.2314 454.906 72.3389C456.43 74.4463 457.192 77.0361 457.192 80.1084C457.192 83.0791 456.506 85.7451 455.135 88.1064C453.738 90.4678 451.885 92.334 449.574 93.7051C447.264 95.0762 444.699 95.7617 441.881 95.7617ZM477.98 95H469.221C468.967 95 468.84 94.873 468.84 94.6191L468.992 41.0322C468.992 40.8291 469.094 40.7275 469.297 40.7275H494.281C494.535 40.7275 494.662 40.8291 494.662 41.0322V49.8301C494.662 50.0332 494.56 50.1348 494.357 50.1348H478.361V62.2461H494.357C494.56 62.2461 494.662 62.373 494.662 62.627L494.738 71.4629C494.738 71.666 494.611 71.7676 494.357 71.7676H478.361V94.6191C478.361 94.873 478.234 95 477.98 95Z" fill="black"/>
</svg>
