<svg width="553" height="132" viewBox="0 0 553 132" fill="none" xmlns="http://www.w3.org/2000/svg">
<path d="M0 20.7847L553 20.7847" stroke="black" stroke-opacity="0.27" stroke-width="8.98111"/>
<path d="M0 109.289L553 109.289" stroke="black" stroke-opacity="0.27" stroke-width="8.98111"/>
<path d="M531.101 0.928406L531.101 131.666" stroke="black" stroke-opacity="0.27" stroke-width="8.98111"/>
<path d="M23.1029 0.928406L23.1029 131.12" stroke="black" stroke-opacity="0.27" stroke-width="8.98111"/>
<path d="M47.488 96H37.8247C37.5446 96 37.4046 95.86 37.4046 95.5799L37.5727 36.4659C37.5727 36.2419 37.6847 36.1298 37.9088 36.1298H54.4623C59.7281 36.1298 63.8875 37.7404 66.9405 40.9615C70.0216 44.1545 71.5621 48.51 71.5621 54.0279C71.5621 58.0612 70.7638 61.5764 69.1673 64.5734C67.5427 67.5424 65.442 69.8392 62.8652 71.4637C60.2883 73.0883 57.4874 73.9006 54.4623 73.9006H47.9081V95.5799C47.9081 95.86 47.7681 96 47.488 96ZM54.4623 46.3393L47.9081 46.4233V63.481H54.4623C56.283 63.481 57.8655 62.6128 59.2099 60.8762C60.5544 59.1116 61.2266 56.8288 61.2266 54.0279C61.2266 51.7871 60.6244 49.9525 59.42 48.524C58.2156 47.0675 56.563 46.3393 54.4623 46.3393ZM93.6968 96H83.9496C83.7255 96 83.6134 95.86 83.6134 95.5799L83.7815 36.4659C83.7815 36.2419 83.8935 36.1298 84.1176 36.1298H101.511C104.621 36.1298 107.477 36.8861 110.082 38.3986C112.687 39.9111 114.76 41.9418 116.3 44.4906C117.869 47.0395 118.653 49.9245 118.653 53.1456C118.653 55.2463 118.331 57.1509 117.687 58.8595C117.043 60.5681 116.286 62.0106 115.418 63.1869C114.578 64.3633 113.808 65.2316 113.107 65.7918C116.216 69.237 117.771 73.2843 117.771 77.9339L117.855 95.5799C117.855 95.86 117.715 96 117.435 96H107.688C107.463 96 107.351 95.916 107.351 95.7479V77.9339C107.351 75.8612 106.623 74.0686 105.167 72.5561C103.71 71.0436 101.918 70.2873 99.7889 70.2873H94.117L94.033 95.5799C94.033 95.86 93.9209 96 93.6968 96ZM101.511 46.4233H94.117V59.9519H101.511C103.276 59.9519 104.845 59.2936 106.217 57.9772C107.618 56.6607 108.318 55.0502 108.318 53.1456C108.318 51.325 107.646 49.7564 106.301 48.44C104.957 47.0955 103.36 46.4233 101.511 46.4233ZM147.93 96.8403C144.877 96.8403 142.062 96.056 139.486 94.4875C136.937 92.919 134.878 90.8323 133.309 88.2274C131.769 85.5945 130.999 82.7095 130.999 79.5725L131.083 52.3053C131.083 49.1122 131.853 46.2412 133.393 43.6924C134.906 41.1155 136.951 39.0568 139.528 37.5163C142.104 35.9478 144.905 35.1635 147.93 35.1635C151.067 35.1635 153.882 35.9338 156.375 37.4743C158.896 39.0148 160.913 41.0875 162.425 43.6924C163.966 46.2692 164.736 49.1402 164.736 52.3053L164.82 79.5725C164.82 82.7095 164.064 85.5805 162.551 88.1854C161.011 90.8183 158.966 92.919 156.417 94.4875C153.868 96.056 151.039 96.8403 147.93 96.8403ZM147.93 86.4628C149.667 86.4628 151.179 85.7626 152.468 84.3621C153.756 82.9336 154.401 81.3371 154.401 79.5725L154.317 52.3053C154.317 50.4006 153.714 48.7901 152.51 47.4737C151.306 46.1572 149.779 45.499 147.93 45.499C146.166 45.499 144.653 46.1432 143.393 47.4316C142.132 48.7201 141.502 50.3446 141.502 52.3053V79.5725C141.502 81.4491 142.132 83.0736 143.393 84.4461C144.653 85.7906 146.166 86.4628 147.93 86.4628ZM196.576 96H186.871C186.619 96 186.493 95.86 186.493 95.5799V46.5073H175.317C175.037 46.5073 174.897 46.3673 174.897 46.0872L174.981 36.4659C174.981 36.2419 175.093 36.1298 175.317 36.1298H208.004C208.312 36.1298 208.466 36.2419 208.466 36.4659V46.0872C208.466 46.3673 208.354 46.5073 208.13 46.5073H196.828L196.912 95.5799C196.912 95.86 196.8 96 196.576 96ZM235.474 96.8403C232.421 96.8403 229.606 96.056 227.03 94.4875C224.481 92.919 222.422 90.8323 220.854 88.2274C219.313 85.5945 218.543 82.7095 218.543 79.5725L218.627 52.3053C218.627 49.1122 219.397 46.2412 220.938 43.6924C222.45 41.1155 224.495 39.0568 227.072 37.5163C229.648 35.9478 232.449 35.1635 235.474 35.1635C238.611 35.1635 241.426 35.9338 243.919 37.4743C246.44 39.0148 248.457 41.0875 249.969 43.6924C251.51 46.2692 252.28 49.1402 252.28 52.3053L252.364 79.5725C252.364 82.7095 251.608 85.5805 250.095 88.1854C248.555 90.8183 246.51 92.919 243.961 94.4875C241.412 96.056 238.583 96.8403 235.474 96.8403ZM235.474 86.4628C237.211 86.4628 238.724 85.7626 240.012 84.3621C241.3 82.9336 241.945 81.3371 241.945 79.5725L241.861 52.3053C241.861 50.4006 241.258 48.7901 240.054 47.4737C238.85 46.1572 237.323 45.499 235.474 45.499C233.71 45.499 232.197 46.1432 230.937 47.4316C229.676 48.7201 229.046 50.3446 229.046 52.3053V79.5725C229.046 81.4491 229.676 83.0736 230.937 84.4461C232.197 85.7906 233.71 86.4628 235.474 86.4628ZM284.12 96H274.415C274.163 96 274.037 95.86 274.037 95.5799V46.5073H262.861C262.581 46.5073 262.441 46.3673 262.441 46.0872L262.525 36.4659C262.525 36.2419 262.637 36.1298 262.861 36.1298H295.548C295.856 36.1298 296.01 36.2419 296.01 36.4659V46.0872C296.01 46.3673 295.898 46.5073 295.674 46.5073H284.372L284.456 95.5799C284.456 95.86 284.344 96 284.12 96ZM325.035 96H315.162C314.966 96 314.868 95.888 314.868 95.6639L314.952 71.2117L303.44 36.4659C303.384 36.2419 303.468 36.1298 303.692 36.1298H313.271C313.551 36.1298 313.719 36.2419 313.775 36.4659L320.119 59.6157L326.59 36.4659C326.646 36.2419 326.786 36.1298 327.01 36.1298H336.673C336.897 36.1298 336.981 36.2419 336.925 36.4659L325.287 70.8755L325.371 95.6639C325.371 95.888 325.259 96 325.035 96ZM358.598 96H348.934C348.654 96 348.514 95.86 348.514 95.5799L348.682 36.4659C348.682 36.2419 348.794 36.1298 349.019 36.1298H365.572C370.838 36.1298 374.997 37.7404 378.05 40.9615C381.131 44.1545 382.672 48.51 382.672 54.0279C382.672 58.0612 381.874 61.5764 380.277 64.5734C378.653 67.5424 376.552 69.8392 373.975 71.4637C371.398 73.0883 368.597 73.9006 365.572 73.9006H359.018V95.5799C359.018 95.86 358.878 96 358.598 96ZM365.572 46.3393L359.018 46.4233V63.481H365.572C367.393 63.481 368.975 62.6128 370.32 60.8762C371.664 59.1116 372.336 56.8288 372.336 54.0279C372.336 51.7871 371.734 49.9525 370.53 48.524C369.325 47.0675 367.673 46.3393 365.572 46.3393ZM423.545 96H395.732C395.507 96 395.395 95.86 395.395 95.5799L395.479 36.4659C395.479 36.2419 395.591 36.1298 395.816 36.1298H423.461C423.685 36.1298 423.797 36.2699 423.797 36.55V46.1712C423.797 46.3953 423.685 46.5073 423.461 46.5073H405.815V59.9519H423.461C423.685 59.9519 423.797 60.0639 423.797 60.288L423.881 70.0353C423.881 70.2593 423.769 70.3714 423.545 70.3714H405.815V85.4124H423.545C423.769 85.4124 423.881 85.5525 423.881 85.8326V95.6639C423.881 95.888 423.769 96 423.545 96ZM458.195 96.8403C455.142 96.8403 452.327 96.056 449.75 94.4875C447.201 92.919 445.156 90.8323 443.616 88.2274C442.103 85.5945 441.347 82.7095 441.347 79.5725V75.6231C441.347 75.315 441.487 75.161 441.767 75.161H451.431C451.655 75.161 451.767 75.315 451.767 75.6231V79.5725C451.767 81.4491 452.397 83.0736 453.657 84.4461C454.918 85.7906 456.43 86.4628 458.195 86.4628C459.987 86.4628 461.514 85.7766 462.774 84.4041C464.035 83.0036 464.665 81.3931 464.665 79.5725C464.665 77.4718 463.293 75.6371 460.548 74.0686C460.099 73.7885 459.511 73.4524 458.783 73.0603C458.083 72.6401 457.242 72.164 456.262 71.6318C455.282 71.0996 454.329 70.5814 453.405 70.0773C452.481 69.5451 451.585 69.0409 450.716 68.5648C447.579 66.7161 445.24 64.4054 443.7 61.6324C442.187 58.8315 441.431 55.6944 441.431 52.2213C441.431 49.0282 442.215 46.1432 443.784 43.5663C445.352 41.0175 447.397 39.0008 449.918 37.5163C452.467 36.0038 455.226 35.2475 458.195 35.2475C461.248 35.2475 464.049 36.0038 466.598 37.5163C469.146 39.0568 471.177 41.1015 472.69 43.6504C474.23 46.1992 475 49.0562 475 52.2213V59.2796C475 59.5037 474.888 59.6157 474.664 59.6157H465.001C464.777 59.6157 464.665 59.5037 464.665 59.2796L464.581 52.2213C464.581 50.2046 463.951 48.566 462.69 47.3056C461.43 46.0452 459.931 45.415 458.195 45.415C456.43 45.415 454.918 46.0872 453.657 47.4316C452.397 48.7761 451.767 50.3726 451.767 52.2213C451.767 54.0979 452.159 55.6664 452.943 56.9268C453.755 58.1873 455.226 59.3917 457.355 60.5401C457.579 60.6521 458.097 60.9322 458.909 61.3803C459.721 61.8285 460.618 62.3327 461.598 62.8928C462.606 63.425 463.517 63.9152 464.329 64.3633C465.141 64.7835 465.631 65.0356 465.799 65.1196C468.656 66.7161 470.911 68.6768 472.564 71.0016C474.244 73.3264 475.084 76.1833 475.084 79.5725C475.084 82.8496 474.328 85.7906 472.816 88.3954C471.275 91.0003 469.231 93.059 466.682 94.5715C464.133 96.084 461.304 96.8403 458.195 96.8403ZM498.017 96H488.354C488.074 96 487.934 95.86 487.934 95.5799L488.102 36.4659C488.102 36.2419 488.214 36.1298 488.438 36.1298H516C516.28 36.1298 516.42 36.2419 516.42 36.4659V46.1712C516.42 46.3953 516.308 46.5073 516.084 46.5073H498.438V59.8678H516.084C516.308 59.8678 516.42 60.0079 516.42 60.288L516.504 70.0353C516.504 70.2593 516.364 70.3714 516.084 70.3714H498.438V95.5799C498.438 95.86 498.298 96 498.017 96Z" fill="black"/>
</svg>